<?xml version="1.0" standalone="no"?>
<!DOCTYPE svg PUBLIC "-//W3C//DTD SVG 20010904//EN"
 "http://www.w3.org/TR/2001/REC-SVG-20010904/DTD/svg10.dtd">
<svg version="1.0" xmlns="http://www.w3.org/2000/svg"
 width="747.000000pt" height="747.000000pt" viewBox="0 0 747.000000 747.000000"
 preserveAspectRatio="xMidYMid meet">
<metadata>
Created by potrace 1.11, written by Peter Selinger 2001-2013
</metadata>
<g transform="translate(0.000000,747.000000) scale(0.100000,-0.100000)"
fill="#000000" stroke="none">
<path d="M3475 7462 c-27 -2 -53 -9 -57 -15 -6 -9 -8 -9 -8 0 0 7 -6 10 -12 8
-16 -5 -91 -13 -136 -14 -22 -1 -31 -5 -26 -12 5 -8 2 -9 -11 -2 -10 6 -31 7
-49 2 -17 -4 -64 -13 -103 -19 -40 -7 -73 -15 -73 -18 0 -4 -21 -8 -46 -8 -26
-1 -49 -6 -53 -10 -3 -5 -15 -9 -26 -10 -42 -2 -84 -17 -78 -27 3 -6 1 -7 -6
-3 -17 11 -112 -14 -104 -27 3 -6 1 -7 -6 -3 -17 11 -123 -22 -115 -36 4 -7 3
-8 -4 -4 -16 10 -93 -15 -85 -27 3 -6 1 -7 -6 -3 -16 10 -83 -13 -75 -26 4 -6
3 -8 -3 -5 -12 7 -94 -23 -89 -32 2 -3 -8 -7 -22 -8 -15 0 -28 -6 -30 -12 -2
-5 -10 -7 -18 -4 -7 3 -16 -2 -20 -10 -3 -9 -12 -13 -21 -10 -10 4 -14 2 -10
-4 4 -6 1 -10 -6 -10 -22 2 -128 -53 -122 -63 3 -5 0 -7 -8 -4 -18 7 -80 -30
-69 -41 4 -5 2 -5 -4 -2 -13 7 -104 -39 -104 -53 0 -4 -8 -7 -17 -6 -10 0 -17
-5 -15 -12 1 -8 -2 -11 -7 -8 -12 8 -87 -43 -83 -56 1 -5 -2 -7 -7 -3 -13 7
-63 -24 -56 -35 3 -4 -3 -7 -13 -6 -9 0 -16 -5 -14 -12 1 -8 -2 -11 -8 -7 -13
8 -71 -36 -63 -48 3 -6 1 -7 -6 -3 -13 9 -73 -38 -63 -49 4 -5 2 -5 -4 -2 -15
9 -66 -32 -58 -45 4 -6 2 -8 -3 -5 -12 8 -109 -69 -106 -83 2 -5 -5 -6 -14 -3
-12 5 -15 2 -10 -10 3 -9 1 -19 -5 -23 -7 -4 -8 -3 -4 4 13 21 -5 13 -34 -15
-16 -15 -27 -31 -24 -35 3 -5 0 -7 -8 -6 -7 2 -12 -3 -10 -10 1 -8 -1 -11 -5
-9 -13 8 -46 -21 -38 -33 3 -6 2 -9 -4 -8 -15 4 -112 -93 -104 -105 3 -5 1 -7
-4 -4 -13 8 -36 -17 -25 -28 4 -5 2 -5 -5 -1 -13 7 -60 -49 -55 -66 1 -5 -2
-7 -7 -4 -12 8 -73 -69 -63 -78 4 -4 2 -6 -4 -4 -16 4 -75 -64 -69 -79 2 -7 1
-12 -4 -10 -8 2 -110 -123 -130 -161 -6 -11 -7 -23 -3 -27 4 -3 0 -5 -8 -3 -9
2 -14 -4 -14 -14 1 -10 -2 -16 -6 -13 -12 7 -42 -44 -34 -57 4 -7 3 -8 -4 -4
-12 7 -36 -30 -27 -44 3 -5 0 -12 -6 -16 -8 -5 -10 -2 -5 7 4 8 -2 3 -13 -11
-11 -14 -19 -31 -16 -38 3 -7 1 -11 -4 -8 -11 7 -23 -22 -14 -36 3 -7 1 -8 -5
-4 -11 7 -17 -6 -13 -27 1 -5 -2 -6 -7 -3 -12 7 -55 -71 -46 -86 5 -7 3 -8 -6
-3 -10 6 -12 4 -7 -9 4 -9 3 -15 -2 -12 -11 7 -23 -22 -14 -36 3 -6 1 -8 -4
-5 -13 8 -26 -20 -16 -35 3 -6 1 -8 -4 -5 -13 8 -26 -20 -16 -35 3 -7 1 -8 -5
-4 -7 4 -12 3 -12 -3 0 -5 -19 -49 -41 -97 -23 -48 -42 -98 -43 -110 0 -12 -4
-20 -8 -18 -11 7 -21 -43 -12 -57 4 -7 3 -10 -3 -6 -11 7 -30 -34 -49 -108 -2
-5 -10 -29 -19 -53 -8 -24 -13 -47 -10 -52 3 -4 1 -10 -3 -12 -15 -5 -74 -229
-76 -285 -1 -11 -5 -19 -10 -16 -5 3 -7 -6 -4 -21 3 -14 1 -26 -3 -26 -5 0 -8
-3 -7 -7 1 -5 -2 -22 -6 -40 -4 -17 -9 -51 -11 -75 -1 -24 -6 -51 -10 -61 -4
-9 -5 -28 -3 -42 3 -14 1 -22 -5 -18 -6 3 -8 -8 -5 -31 2 -20 1 -36 -2 -36 -4
0 -7 -6 -7 -12 -1 -39 -16 -194 -19 -197 -2 -2 1 -12 6 -22 7 -12 7 -20 -1
-24 -10 -7 -7 -420 5 -510 3 -22 7 -67 11 -100 3 -33 7 -71 9 -85 3 -14 7 -45
10 -70 11 -82 19 -115 30 -122 8 -6 8 -8 0 -8 -7 0 -9 -10 -6 -25 2 -14 8 -23
12 -20 5 3 6 -3 3 -13 -10 -38 115 -481 131 -465 4 4 4 1 1 -8 -12 -32 159
-425 268 -614 22 -38 45 -79 51 -90 106 -186 331 -481 505 -660 237 -244 446
-414 719 -586 127 -80 453 -246 567 -289 33 -12 74 -28 90 -35 131 -55 535
-162 680 -179 28 -4 61 -8 75 -11 125 -23 245 -30 515 -30 297 0 385 7 615 46
137 24 340 71 430 101 36 11 83 26 105 34 66 21 202 72 249 94 25 11 48 20 51
20 15 0 329 162 413 214 807 490 1388 1240 1658 2138 52 176 113 469 129 628
4 36 11 99 15 140 9 76 5 620 -4 675 -3 17 -7 57 -11 90 -3 33 -7 67 -10 75
-2 8 -6 37 -10 65 -19 148 -76 387 -139 580 -41 122 -126 346 -146 383 -5 10
-38 76 -74 148 -205 415 -520 822 -876 1129 -30 26 -68 59 -85 73 -104 91
-358 268 -493 344 -193 108 -505 251 -617 282 -5 2 -17 6 -25 9 -177 67 -553
152 -765 172 -33 3 -68 8 -79 11 -14 5 -16 3 -10 -7 6 -11 5 -12 -7 -3 -16 14
-139 24 -139 12 0 -4 -5 -8 -11 -8 -5 0 -8 4 -5 9 9 13 -306 10 -323 -3 -11
-8 -13 -8 -8 0 4 8 -1 11 -16 10 -12 0 -44 -2 -72 -4z"/>
</g>
</svg>
